HIERARCHY
ROOT Hips
{
  OFFSET 1.73907 43.2358 0.0522707
  CHANNELS 6 Xposition Yposition Zposition Zrotation Xrotation Yrotation
  JOINT Bip01_Pelvis
  {
    OFFSET 0 0 0
    CHANNELS 6 Xposition Yposition Zposition Zrotation Xrotation Yrotation
    JOINT BN_Tail_01
    {
      OFFSET -2.28979 -2.39917 0
      CHANNELS 6 Xposition Yposition Zposition Zrotation Xrotation Yrotation
      JOINT BN_Tail_02
      {
        OFFSET 9.67405 0 0
        CHANNELS 6 Xposition Yposition Zposition Zrotation Xrotation Yrotation
        JOINT BN_Tail_03
        {
          OFFSET 10.5192 0 -1.14441e-005
          CHANNELS 6 Xposition Yposition Zposition Zrotation Xrotation Yrotation
          JOINT BN_Tail_04
          {
            OFFSET 8.16754 0 0
            CHANNELS 6 Xposition Yposition Zposition Zrotation Xrotation Yrotation
            End Site
            {
              OFFSET 0 0 0
            }
          }
        }
      }
    }
    JOINT Bip01_Spine
    {
      OFFSET 2.25317 -0.00479889 0
      CHANNELS 6 Xposition Yposition Zposition Zrotation Xrotation Yrotation
      JOINT Bip01_R_Thigh
      {
        OFFSET -2.32652 -0.461891 -2.25534
        CHANNELS 6 Xposition Yposition Zposition Zrotation Xrotation Yrotation
        JOINT Bip01_R_Calf
        {
          OFFSET 9.47902 0 0
          CHANNELS 6 Xposition Yposition Zposition Zrotation Xrotation Yrotation
          JOINT Bip01_R_Foot
          {
            OFFSET 8.42616 0 0
            CHANNELS 6 Xposition Yposition Zposition Zrotation Xrotation Yrotation
            JOINT Bip01_R_Toe1
            {
              OFFSET 1.4015 3.97627 -1.33795
              CHANNELS 6 Xposition Yposition Zposition Zrotation Xrotation Yrotation
              JOINT Bip01_R_Toe11
              {
                OFFSET 2.94553 0 0
                CHANNELS 6 Xposition Yposition Zposition Zrotation Xrotation Yrotation
                JOINT Bip01_R_Toe1Nub
                {
                  OFFSET 2.52656 0 0
                  CHANNELS 6 Xposition Yposition Zposition Zrotation Xrotation Yrotation
                  End Site
                  {
                    OFFSET 0 0 0
                  }
                }
              }
            }
            JOINT Bip01_R_Toe0
            {
              OFFSET 2.09729 6.93129 0.0277901
              CHANNELS 6 Xposition Yposition Zposition Zrotation Xrotation Yrotation
              JOINT Bip01_R_Toe01
              {
                OFFSET 3.0714 0 0
                CHANNELS 6 Xposition Yposition Zposition Zrotation Xrotation Yrotation
                JOINT Bip01_R_Toe0Nub
                {
                  OFFSET 3.37999 0 0
                  CHANNELS 6 Xposition Yposition Zposition Zrotation Xrotation Yrotation
                  End Site
                  {
                    OFFSET 0 0 0
                  }
                }
              }
            }
          }
        }
      }
      JOINT Bip01_L_Thigh
      {
        OFFSET -2.07803 -0.462101 2.48614
        CHANNELS 6 Xposition Yposition Zposition Zrotation Xrotation Yrotation
        JOINT Bip01_L_Calf
        {
          OFFSET 9.47902 0 0
          CHANNELS 6 Xposition Yposition Zposition Zrotation Xrotation Yrotation
          JOINT Bip01_L_Foot
          {
            OFFSET 8.42617 0 0
            CHANNELS 6 Xposition Yposition Zposition Zrotation Xrotation Yrotation
            JOINT Bip01_L_Toe1
            {
              OFFSET 1.40151 3.97627 1.33796
              CHANNELS 6 Xposition Yposition Zposition Zrotation Xrotation Yrotation
              JOINT Bip01_L_Toe11
              {
                OFFSET 2.94554 0 0
                CHANNELS 6 Xposition Yposition Zposition Zrotation Xrotation Yrotation
                JOINT Bip01_L_Toe1Nub
                {
                  OFFSET 2.52656 0 0
                  CHANNELS 6 Xposition Yposition Zposition Zrotation Xrotation Yrotation
                  End Site
                  {
                    OFFSET 0 0 0
                  }
                }
              }
            }
            JOINT Bip01_L_Toe0
            {
              OFFSET 2.0973 6.93128 -0.0277834
              CHANNELS 6 Xposition Yposition Zposition Zrotation Xrotation Yrotation
              JOINT Bip01_L_Toe01
              {
                OFFSET 3.07141 0 0
                CHANNELS 6 Xposition Yposition Zposition Zrotation Xrotation Yrotation
                JOINT Bip01_L_Toe0Nub
                {
                  OFFSET 3.37999 0 0
                  CHANNELS 6 Xposition Yposition Zposition Zrotation Xrotation Yrotation
                  End Site
                  {
                    OFFSET 0 0 0
                  }
                }
              }
            }
          }
        }
      }
      JOINT Bip01_Spine1
      {
        OFFSET 6.17162 -0.00484467 0
        CHANNELS 6 Xposition Yposition Zposition Zrotation Xrotation Yrotation
        JOINT BN_R_Clavicle_01
        {
          OFFSET 6.15897 -2.02444 -2.78435
          CHANNELS 6 Xposition Yposition Zposition Zrotation Xrotation Yrotation
          JOINT BN_R_UpperArm_01
          {
            OFFSET 3.43915 0 0
            CHANNELS 6 Xposition Yposition Zposition Zrotation Xrotation Yrotation
            JOINT BN_R__Forearm_01
            {
              OFFSET 10.2529 0 0
              CHANNELS 6 Xposition Yposition Zposition Zrotation Xrotation Yrotation
              JOINT BN_R_Hand_01
              {
                OFFSET 16.2051 0 0
                CHANNELS 6 Xposition Yposition Zposition Zrotation Xrotation Yrotation
                JOINT BN_R_Finger_07
                {
                  OFFSET 2.2539 2.19923 0.192043
                  CHANNELS 6 Xposition Yposition Zposition Zrotation Xrotation Yrotation
                  End Site
                  {
                    OFFSET 0 0 0
                  }
                }
                JOINT BN_R_Finger_01
                {
                  OFFSET 2.17806 -1.99631 -0.219296
                  CHANNELS 6 Xposition Yposition Zposition Zrotation Xrotation Yrotation
                  End Site
                  {
                    OFFSET 0 0 0
                  }
                }
                JOINT BN_R_Finger_05
                {
                  OFFSET 3.30715 1.42802 0.17391
                  CHANNELS 6 Xposition Yposition Zposition Zrotation Xrotation Yrotation
                  End Site
                  {
                    OFFSET 0 0 0
                  }
                }
                JOINT BN_R_Finger_03
                {
                  OFFSET 3.93641 -0.769831 0.580946
                  CHANNELS 6 Xposition Yposition Zposition Zrotation Xrotation Yrotation
                  End Site
                  {
                    OFFSET 0 0 0
                  }
                }
              }
            }
          }
        }
        JOINT BN_L_Clavicle_01
        {
          OFFSET 6.15897 -2.02445 2.78458
          CHANNELS 6 Xposition Yposition Zposition Zrotation Xrotation Yrotation
          JOINT BN_L_UpperArm_01
          {
            OFFSET 3.43915 0 0
            CHANNELS 6 Xposition Yposition Zposition Zrotation Xrotation Yrotation
            JOINT BN_L__Forearm_01
            {
              OFFSET 10.2529 0 0
              CHANNELS 6 Xposition Yposition Zposition Zrotation Xrotation Yrotation
              JOINT BN_L_Hand_01
              {
                OFFSET 16.2051 0 0
                CHANNELS 6 Xposition Yposition Zposition Zrotation Xrotation Yrotation
                JOINT BN_L_Finger_05
                {
                  OFFSET 3.30715 -1.42803 0.173891
                  CHANNELS 6 Xposition Yposition Zposition Zrotation Xrotation Yrotation
                  End Site
                  {
                    OFFSET 0 0 0
                  }
                }
                JOINT BN_L_Finger_07
                {
                  OFFSET 2.2539 -2.19925 0.19203
                  CHANNELS 6 Xposition Yposition Zposition Zrotation Xrotation Yrotation
                  End Site
                  {
                    OFFSET 0 0 0
                  }
                }
                JOINT BN_L_Finger_01
                {
                  OFFSET 2.17804 1.99629 -0.219303
                  CHANNELS 6 Xposition Yposition Zposition Zrotation Xrotation Yrotation
                  End Site
                  {
                    OFFSET 0 0 0
                  }
                }
                JOINT BN_L_Finger_03
                {
                  OFFSET 3.9364 0.769825 0.580943
                  CHANNELS 6 Xposition Yposition Zposition Zrotation Xrotation Yrotation
                  End Site
                  {
                    OFFSET 0 0 0
                  }
                }
              }
            }
          }
        }
        JOINT Bip01_Neck
        {
          OFFSET 7.02381 -0.81237 0
          CHANNELS 6 Xposition Yposition Zposition Zrotation Xrotation Yrotation
          JOINT Bip01_Head
          {
            OFFSET 1.54249 1.14441e-005 0
            CHANNELS 6 Xposition Yposition Zposition Zrotation Xrotation Yrotation
            JOINT BN_Mouth_01
            {
              OFFSET 2.32836 0.166542 0
              CHANNELS 6 Xposition Yposition Zposition Zrotation Xrotation Yrotation
              End Site
              {
                OFFSET 0 0 0
              }
            }
            JOINT BN_R_Ear_01
            {
              OFFSET 3.4208 -0.773972 -2.25959
              CHANNELS 6 Xposition Yposition Zposition Zrotation Xrotation Yrotation
              End Site
              {
                OFFSET 0 0 0
              }
            }
            JOINT BN_L_Ear_01
            {
              OFFSET 3.4208 -0.773976 2.25975
              CHANNELS 6 Xposition Yposition Zposition Zrotation Xrotation Yrotation
              End Site
              {
                OFFSET 0 0 0
              }
            }
            JOINT Bip01_HeadNub
            {
              OFFSET 6.74789 0 0
              CHANNELS 6 Xposition Yposition Zposition Zrotation Xrotation Yrotation
              End Site
              {
                OFFSET 0 0 0
              }
            }
          }
        }
      }
    }
  }
}
MOTION
Frames:	4
Frame Time:	0.0333333
3.91566 50.839 0.108864 2.75595 -86.9902 91.9534 0 0 0 -89.9965 -3.50835e-015 -90 -2.28978 -2.39919 -4.76837e-007 -106.239 88.2966 -82.5746 9.67405 -4.76837e-007 -3.8147e-006 -7.4561 -1.92128 5.99756 10.5192 4.76837e-007 7.6294e-006 -9.69288 -3.36651 24.6221 8.16754 -8.34465e-007 -3.8147e-006 -11.783 -3.7633 19.4941 2.25317 -0.00479889 -4.76837e-007 -3.54873 -0.0642193 -2.33238 -2.34422 -0.131311 -2.28083 -7.90163 -4.85872 157.502 9.47902 -7.10543e-015 -3.55271e-015 -36.6826 5.59542e-006 1.43591e-006 8.42616 3.55272e-014 2.86102e-006 -20.9488 -4.443 10.5394 1.40149 3.97626 -1.33795 84.5919 -41.6534 28.5762 2.94555 -2.84217e-014 1.90735e-006 -35.5423 -4.94501e-006 6.79726e-006 2.52656 -4.26326e-014 -5.72205e-006 -9.77819e-006 1.00394e-005 8.96863e-006 2.09729 6.93128 0.0277977 65.5162 2.45804e-007 1.97567e-005 3.07141 7.6294e-006 -1.45661e-013 -25.1645 1.57723e-007 -3.70869e-007 3.37999 1.14441e-005 -1.90735e-006 -9.97466e-006 -1.62584e-007 1.11219e-008 -2.15129 -0.137403 2.46343 -2.35772 6.27594 -161.555 9.47902 -7.62939e-006 9.23706e-014 -18.9713 -3.37025e-007 3.14801e-006 8.42617 -2.84217e-014 -3.55271e-015 -21.7731 7.35289 -6.91624 1.4015 3.97627 1.33796 72.0155 45.763 -19.8598 2.94554 9.23705e-014 -7.6294e-006 -37.5421 -4.17286e-006 2.09898e-006 2.52655 -1.90735e-006 -1.06581e-014 -179.96 -2.28651e-005 4.51057e-005 2.0973 6.93128 -0.027786 54.6056 1.24643e-005 6.9602e-006 3.07142 7.62939e-006 4.76837e-007 -37.6308 -3.84708e-006 1.10583e-005 3.38 1.90735e-006 0 179.96 -3.69523e-005 4.4439e-005 6.17162 -0.00486755 -1.32854e-011 -9.68871 -0.606816 -1.82743 6.15898 -2.02443 -2.78435 -178.034 9.59832 77.6605 3.43915 -7.6294e-006 3.8147e-006 109.149 70.3645 -100.701 10.2529 -1.42109e-014 -3.8147e-006 -33.7129 1.27939 2.09797 16.2051 -7.63834e-013 7.10543e-015 22.4679 -2.14882 35.7193 2.25392 2.19924 0.192034 69.0616 -0.331516 7.67493 2.17808 -1.9963 -0.219309 -71.073 -0.189763 8.13595 3.30716 1.42802 0.1739 21.7876 1.0794 27.4918 3.93642 -0.769821 0.580935 -1.15873 0.476786 26.6422 6.15897 -2.02443 2.78458 1.9381 9.57629 -102.334 3.43915 7.10543e-015 7.10543e-015 -68.9124 -74.2222 -70.0633 10.2529 -2.20268e-013 -3.8147e-006 39.0753 -7.30039 4.32233 16.2051 -1.65201e-012 -3.8147e-006 -26.565 -3.08505 33.472 3.30716 -1.42803 0.173893 -21.7859 -1.06324 31.0376 2.25392 -2.19925 0.192029 -68.545 -0.522722 15.6702 2.17804 1.9963 -0.219304 71.0574 0.184903 6.14722 3.9364 0.769832 0.580942 0.983186 -2.64441 27.2566 7.02382 -0.812359 4.73764e-007 10.998 -3.56473e-007 1.90684e-007 1.54249 -7.6294e-006 -7.32747e-015 -43.652 0.29536 8.02819 2.32835 0.166561 2.43297e-007 -65.5326 1.05805 178.291 3.42079 -0.773964 -2.25959 120.21 3.06543 168.28 3.42079 -0.773968 2.25975 -60.5491 -0.21315 -9.98479 6.74787 -1.06581e-014 0 1.06864e-006 4.83345e-008 -1.67477e-008 
3.50065 51.1085 0.17944 9.42126 -87.0236 97.5702 0 0 0 -89.9965 -3.50835e-015 -90 -2.28978 -2.39919 -4.76837e-007 -106.331 86.3261 -80.6707 9.67405 -4.76837e-007 -3.8147e-006 -6.33604 -2.9681 2.54598 10.5192 4.76837e-007 7.6294e-006 -11.2225 -2.90676 24.2735 8.16754 -8.34465e-007 -3.8147e-006 -14.055 -4.53089 21.2275 2.25317 -0.00479889 -4.76837e-007 -2.36275 -0.068813 -1.72454 -2.32206 -0.0845514 -2.3054 -9.27496 -4.69608 158.564 9.47902 1.42109e-014 -3.55271e-015 -34.7024 4.31179e-007 8.4998e-006 8.42616 1.42109e-014 2.86102e-006 -23.8858 -1.94364 10.089 1.40149 3.97626 -1.33795 82.1224 -42.6165 26.9193 2.94555 -2.84217e-014 1.90735e-006 -34.5041 -4.25817e-006 7.18917e-006 2.52656 -6.39489e-014 -5.72205e-006 -9.77819e-006 1.00394e-005 8.96863e-006 2.09729 6.93128 0.0277977 66.9983 -8.41653e-006 1.5823e-005 3.07141 7.6294e-006 -1.10134e-013 -22.7968 1.34935e-007 -2.45106e-007 3.37999 1.14441e-005 -1.90735e-006 -9.97466e-006 -1.62584e-007 1.1122e-008 -2.17903 -0.0905114 2.4404 -4.82796 5.93636 -161.112 9.47902 -7.62939e-006 1.45661e-013 -19.9788 -1.64094e-006 3.77433e-006 8.42617 -2.13163e-014 -1.77636e-015 -26.5218 8.03971 -6.98003 1.4015 3.97627 1.33796 73.1999 45.4568 -20.7061 2.94554 -4.9738e-014 -7.6294e-006 -36.5018 -9.83356e-006 1.1047e-005 2.52655 -1.90735e-006 0 -179.96 -2.28622e-005 4.51064e-005 2.0973 6.93128 -0.0277862 56.3285 2.77477e-006 2.6316e-006 3.07142 7.62939e-006 4.76837e-007 -36.5907 3.67373e-006 3.80029e-006 3.38 1.90735e-006 -3.55271e-015 179.96 -3.69538e-005 4.44393e-005 6.17162 -0.00486755 -1.44693e-011 -6.34418 -0.409351 -2.56193 6.15898 -2.02443 -2.78435 -178.034 9.59832 77.6605 3.43915 -7.6294e-006 3.8147e-006 95.0509 68.5541 -104.252 10.2529 -1.42109e-014 -3.8147e-006 -33.4285 1.16067 2.168 16.2051 -1.74083e-012 7.10543e-015 24.9728 -3.11707 36.0859 2.25392 2.19924 0.192034 69.0001 -0.177285 12.2977 2.17808 -1.9963 -0.219309 -71.0404 -0.181827 7.79705 3.30716 1.42802 0.1739 21.8242 1.05206 28.4537 3.93642 -0.769821 0.580935 -1.1179 0.470836 25.5432 6.15897 -2.02443 2.78458 1.9381 9.57629 -102.334 3.43915 7.10543e-015 0 -47.9618 -72.5058 -66.8523 10.2529 -8.10019e-013 -3.8147e-006 38.0261 -6.49593 5.10451 16.2051 4.93117e-012 -3.8147e-006 -28.3918 -0.931404 33.4163 3.30716 -1.42803 0.173893 -21.8055 -1.04275 32.6382 2.25392 -2.19925 0.192029 -68.503 -0.515772 19.0832 2.17804 1.9963 -0.219304 71.0702 0.186993 5.66565 3.9364 0.769832 0.580942 0.859898 -2.61884 26.044 7.02382 -0.812359 4.72817e-007 10.998 -4.4028e-007 1.77942e-007 1.54249 -7.6294e-006 -2.07612e-014 -45.5232 -0.421775 8.43845 2.32835 0.166561 2.43275e-007 -66.9299 0.90557 178.567 3.42079 -0.773964 -2.25959 119.997 3.07759 168.548 3.42079 -0.773968 2.25975 -61.2845 -0.243673 -10.606 6.74787 0 -3.55272e-015 -8.94924e-006 4.83342e-008 -1.67474e-008 
3.00039 51.5941 0.254041 18.9845 -87.0465 106.005 0 0 0 -89.9965 -3.50835e-015 -90 -2.28978 -2.39919 -4.76837e-007 -105.585 84.3412 -79.3819 9.67405 -4.76837e-007 -3.8147e-006 -4.92656 -4.09722 -1.20613 10.5192 4.76837e-007 7.6294e-006 -12.4754 -2.39997 22.9941 8.16754 -8.34465e-007 -3.8147e-006 -16.001 -5.64186 22.1544 2.25317 -0.00479889 -4.76837e-007 -0.6649 -0.0543792 -0.874643 -2.28963 -0.0184973 -2.33933 -11.3223 -4.39506 159.698 9.47902 7.10543e-015 0 -32.128 4.09065e-007 8.68453e-006 8.42616 0 2.86102e-006 -27.1087 0.954416 9.6156 1.40149 3.97626 -1.33795 78.5018 -43.8869 24.4377 2.94555 -6.39489e-014 1.90735e-006 -32.9865 -3.41422e-006 7.66378e-006 2.52656 -8.52652e-014 -5.72205e-006 -9.77819e-006 1.00394e-005 8.96863e-006 2.09729 6.93128 0.0277977 69.083 6.40255e-007 1.9383e-005 3.07141 7.6294e-006 -6.03962e-014 -19.4571 -2.5375e-007 4.70343e-007 3.37999 1.14441e-005 -1.90735e-006 -9.97466e-006 -1.62584e-007 1.11221e-008 -2.21729 -0.0235242 2.40782 -8.15839 5.51951 -160.851 9.47902 -7.6294e-006 2.13163e-013 -21.401 -6.25803e-006 1.23137e-005 8.42617 -1.42109e-014 -7.10543e-015 -31.6059 8.47675 -6.829 1.4015 3.97627 1.33796 74.8489 45.0042 -21.8769 2.94554 -2.06057e-013 -7.6294e-006 -34.9848 -3.27622e-006 3.69022e-006 2.52655 -1.90735e-006 -1.42109e-014 -179.96 -2.28581e-005 4.51061e-005 2.0973 6.93128 -0.0277864 58.7581 5.99703e-007 3.54186e-006 3.07142 7.62939e-006 4.76837e-007 -35.1202 4.87809e-006 4.31709e-006 3.38 1.90735e-006 -3.55271e-015 179.96 -3.6955e-005 4.44394e-005 6.17162 -0.00486755 -1.57794e-011 -2.48034 -0.23844 -3.20975 6.15898 -2.02443 -2.78435 -178.034 9.59832 77.6605 3.43915 -7.62939e-006 3.8147e-006 79.1901 66.853 -107.714 10.2529 -7.10543e-015 -3.8147e-006 -32.8865 0.838515 2.15097 16.2051 1.10489e-012 7.10544e-015 27.9163 -4.22448 35.1133 2.25392 2.19924 0.192034 68.9278 -0.0313433 16.8308 2.17807 -1.9963 -0.21931 -71.0332 -0.182846 6.65591 3.30716 1.42802 0.1739 21.8237 1.04819 28.509 3.93642 -0.769821 0.580935 -1.09761 0.483376 22.9963 6.15897 -2.02443 2.78458 1.9381 9.57629 -102.334 3.43915 2.84217e-014 0 -24.662 -70.4798 -62.6108 10.2529 -9.0239e-013 -3.8147e-006 36.5352 -5.55259 5.83124 16.2051 1.95044e-012 -3.8147e-006 -30.2558 1.53413 31.9022 3.30716 -1.42803 0.173893 -21.8263 -1.02423 33.2646 2.25392 -2.19925 0.192029 -68.4816 -0.499667 22.7393 2.17804 1.9963 -0.219304 71.0558 0.186155 4.29627 3.9364 0.769832 0.580941 0.716064 -2.61633 23.3632 7.02382 -0.812359 4.70689e-007 10.998 -5.05619e-007 1.49304e-007 1.54249 -7.6294e-006 -4.00791e-014 -47.861 -1.05988 8.44216 2.32835 0.166561 2.43042e-007 -68.2992 0.749661 178.833 3.42079 -0.773964 -2.25959 119.787 3.08856 168.811 3.42079 -0.773968 2.25975 -62.0058 -0.265931 -11.2156 6.74787 7.10543e-015 8.88179e-016 -8.94926e-006 4.83342e-008 -1.67474e-008 
2.46583 52.2433 0.327139 30.644 -87.003 116.546 0 0 0 -89.9965 -3.50835e-015 -90 -2.28978 -2.39919 -4.76837e-007 -104.525 82.4954 -78.4332 9.67405 -4.76837e-007 -3.8147e-006 -3.43184 -5.15486 -4.84889 10.5192 4.76837e-007 7.6294e-006 -13.2036 -1.93982 20.9801 8.16754 -8.34465e-007 -3.8147e-006 -17.3963 -6.91291 22.3533 2.25317 -0.00479889 -4.76837e-007 1.37441 0.00167819 0.139877 -2.24704 0.0590108 -2.37986 -13.8169 -3.96671 160.798 9.47902 -7.10543e-015 1.77636e-015 -29.1293 5.23012e-006 1.08502e-007 8.42616 7.10543e-015 2.86102e-006 -30.4435 3.97039 9.10149 1.40149 3.97626 -1.33795 74.2701 -45.1635 21.4697 2.94555 -7.81597e-014 1.90735e-006 -31.4539 -2.52277e-006 8.10476e-006 2.52656 -6.39489e-014 -5.72205e-006 -9.77819e-006 1.00394e-005 8.96863e-006 2.09729 6.93128 0.0277977 71.422 7.65331e-007 1.91569e-005 3.07141 7.6294e-006 -7.10543e-015 -15.7165 -5.83333e-007 4.0407e-007 3.37999 1.14441e-005 -1.90735e-006 -9.97466e-006 -1.62583e-007 1.11223e-008 -2.25835 0.0599147 2.36843 -12.0303 5.10317 -160.781 9.47902 -7.6294e-006 2.96652e-013 -22.9726 -4.23888e-006 3.88541e-006 8.42617 -1.42109e-014 -7.10543e-015 -36.7344 8.60939 -6.51926 1.4015 3.97627 1.33796 76.6622 44.4702 -23.1532 2.94554 -2.98428e-013 -7.6294e-006 -33.4527 -7.54522e-006 1.11008e-005 2.52655 -1.90735e-006 -1.06581e-014 -179.96 -2.28542e-005 4.51052e-005 2.0973 6.93128 -0.0277865 61.4856 8.0335e-006 9.33316e-006 3.07142 7.62939e-006 4.76837e-007 -33.4733 3.47883e-007 1.30777e-005 3.38 1.90735e-006 -7.10543e-015 179.96 -3.69559e-005 4.44394e-005 6.17162 -0.00486755 -1.68101e-011 1.58846 -0.111617 -3.75893 6.15898 -2.02443 -2.78435 -178.034 9.59832 77.6605 3.43915 -7.62939e-006 3.8147e-006 62.5748 65.3507 -110.665 10.2529 1.77636e-015 -3.8147e-006 -32.1208 0.335204 1.99626 16.2051 4.65406e-013 0 30.5806 -5.32005 32.8691 2.25392 2.19924 0.192035 68.8434 0.10979 21.409 2.17807 -1.9963 -0.219311 -71.0259 -0.184005 5.50348 3.30716 1.42802 0.173901 21.8454 1.04765 27.6505 3.93642 -0.769822 0.580935 -1.04172 0.493303 19.3065 6.15897 -2.02443 2.78458 1.9381 9.57629 -102.334 3.43915 7.10543e-015 0 -1.74795 -68.3436 -58.7118 10.2529 -6.5814e-013 -3.8147e-006 34.6725 -4.42988 6.39289 16.2051 1.19016e-012 -3.8147e-006 -31.5857 4.0406 29.0741 3.30716 -1.42803 0.173894 -21.8264 -1.02448 32.8854 2.25392 -2.19925 0.19203 -68.4612 -0.482065 26.4317 2.17804 1.9963 -0.219305 71.0414 0.18566 2.91332 3.9364 0.769833 0.580941 0.593615 -2.62343 19.5329 7.02382 -0.812359 4.67746e-007 10.998 -5.40169e-007 1.09708e-007 1.54249 -7.6294e-006 -6.03962e-014 -50.4814 -1.62271 8.0828 2.32835 0.166561 2.42633e-007 -69.8823 0.517609 179.239 3.42079 -0.773964 -2.25959 119.575 3.09865 169.077 3.42079 -0.773968 2.25975 -62.7346 -0.280572 -11.8314 6.74787 0 0 -8.94926e-006 4.83342e-008 -1.67475e-008 
